# xmcd CD database file
#
# Track frame offsets:
#	150
#	20222
#	40080
#	65785
#	88605
#	110865
#	136245
#	159522
#	180132
#	201610
#	224540
#
# Disc length: 3228 seconds
#
# Revision: 0
# Processed by: cddbd v1.5.1PL2 Copyright (c) Steve Scherf et al.
# Submitted via: CDex 1.51
#
DISCID=a50c9a0b
DTITLE=Tom Scott - The Very Best of Tom Scott
DYEAR=2006
DGENRE=Jazz
TTITLE0=Upbeat 90's
TTITLE1=Only a Heartbeat Away
TTITLE2=Reed My Lips
TTITLE3=Anytime, Anyplace
TTITLE4=Mazin'
TTITLE5=Lost in Love
TTITLE6=In Your Eyes
TTITLE7=Chester and Bruce
TTITLE8=Only You
TTITLE9=Amaretto
TTITLE10=Born Again
EXTD=YEAR: 2006
EXTT0=
EXTT1=
EXTT2=
EXTT3=
EXTT4=
EXTT5=
EXTT6=
EXTT7=
EXTT8=
EXTT9=
EXTT10=
PLAYORDER=
